<?xml version="1.0" encoding="UTF-8" standalone="no"?>
<!-- Created with Inkscape (http://www.inkscape.org/) -->

<svg
   xmlns:dc="http://purl.org/dc/elements/1.1/"
   xmlns:cc="http://creativecommons.org/ns#"
   xmlns:rdf="http://www.w3.org/1999/02/22-rdf-syntax-ns#"
   xmlns:svg="http://www.w3.org/2000/svg"
   xmlns="http://www.w3.org/2000/svg"
   xmlns:sodipodi="http://sodipodi.sourceforge.net/DTD/sodipodi-0.dtd"
   xmlns:inkscape="http://www.inkscape.org/namespaces/inkscape"
   width="842.94116"
   height="842.94116"
   viewBox="0 0 223.02818 223.02819"
   version="1.1"
   id="svg8"
   inkscape:version="0.92.3 (2405546, 2018-03-11)"
   sodipodi:docname="logo.svg">
  <defs
     id="defs2" />
  <sodipodi:namedview
     id="base"
     pagecolor="#ffffff"
     bordercolor="#666666"
     borderopacity="1.0"
     inkscape:pageopacity="0.0"
     inkscape:pageshadow="2"
     inkscape:zoom="0.35"
     inkscape:cx="91.502123"
     inkscape:cy="462.94935"
     inkscape:document-units="px"
     inkscape:current-layer="layer1"
     showgrid="false"
     showborder="false"
     inkscape:snap-global="false"
     inkscape:window-width="1920"
     inkscape:window-height="1017"
     inkscape:window-x="-8"
     inkscape:window-y="-8"
     inkscape:window-maximized="1"
     units="px"
     fit-margin-top="0"
     fit-margin-left="0"
     fit-margin-right="0"
     fit-margin-bottom="0" />
  <metadata
     id="metadata5">
    <rdf:RDF>
      <cc:Work
         rdf:about="">
        <dc:format>image/svg+xml</dc:format>
        <dc:type
           rdf:resource="http://purl.org/dc/dcmitype/StillImage" />
        <dc:title />
      </cc:Work>
    </rdf:RDF>
  </metadata>
  <g
     inkscape:label="Layer 1"
     inkscape:groupmode="layer"
     id="layer1"
     transform="translate(16.655298,-48.293828)">
    <flowRoot
       xml:space="preserve"
       id="flowRoot819"
       style="font-style:normal;font-weight:normal;font-size:192px;line-height:13.35000038;font-family:sans-serif;letter-spacing:0px;word-spacing:0px;fill:#000000;fill-opacity:1;stroke:none"><flowRegion
         id="flowRegion821"
         style="line-height:13.35000038"><rect
           id="rect823"
           width="514.28571"
           height="377.14285"
           x="-337.14285"
           y="353.94824"
           style="line-height:13.35000038" /></flowRegion><flowPara
         id="flowPara825" /></flowRoot>    <g
       id="g832">
      <path
         style="fill:#289784;stroke:none;stroke-width:0.1564326;stroke-opacity:1"
         d="M 206.37288,159.80792 A 111.51409,111.51409 0 0 1 94.858791,271.32201 111.51409,111.51409 0 0 1 -16.655298,159.80792 111.51409,111.51409 0 0 1 94.858791,48.293828 111.51409,111.51409 0 0 1 206.37288,159.80792 Z"
         id="path846"
         inkscape:connector-curvature="0" />
      <path
         d="m 54.220502,224.02386 q 0.802949,-0.88792 2.23042,-2.3574 1.516684,-1.57808 3.836324,-3.77641 1.784338,-1.54691 2.587293,-2.7917 0.80295,-1.2448 0.80295,-2.40462 0,-4.19319 -0.08922,-5.33365 0,-1.15981 0,-1.78434 0,-8.56483 0.446083,-13.47931 0.446083,-4.91449 1.159819,-6.22913 l -0.178431,-2.63782 -0.535305,-0.50837 q 0,-0.98139 0,-1.69511 0.08922,-0.82232 0.08922,-1.35762 0,-4.90693 -4.371628,-5.2968 -4.282408,-0.40924 -4.282408,-4.51322 0,-1.24904 2.498071,-3.5753 2.498072,-2.41548 7.315783,-6.04792 0.62452,-4.5071 1.338255,-9.83651 0.713736,-5.32941 1.695116,-11.78749 -0.356863,-1.08241 -0.535299,-1.75744 -0.17843,-0.76424 -0.17843,-1.38877 0,-3.12258 0.713729,-5.86471 0.713734,-2.7421 1.962773,-5.33273 0.802956,-1.42322 2.05199,-3.12166 1.249037,-1.78764 3.033373,-3.95905 1.427471,-1.64794 2.141205,-2.78416 0.713735,-1.22544 0.713735,-1.84995 0,-0.71373 -0.62452,-1.02434 -0.535297,-0.32996 -1.6059,-0.0977 -3.301026,0.71612 -9.72464,4.25084 -6.423617,3.44551 -9.635423,4.14227 -1.070601,0.23226 -1.605905,0.0808 -0.446083,-0.17087 -0.446083,-0.7954 0,-1.78434 0.178437,-3.1613 0.178432,-1.37696 0.446082,-1.97032 1.516684,-1.48885 2.319636,-2.73364 0.89217,-1.26414 0.89217,-2.33475 0,-0.44608 0.892172,-1.35336 0.981381,-0.92664 3.03337,-1.90708 8.207952,-4.10026 12.490361,-6.27831 4.371629,-2.197409 4.996148,-2.511325 4.996143,-2.332888 9.546202,-3.855272 4.550059,-1.611596 8.475605,-2.463195 0.446086,-0.09677 1.784348,-0.119441 1.33825,-0.111884 1.78432,-0.38709 1.78435,-0.654742 3.74713,-1.437409 0.53529,-0.116126 3.1226,-0.142107 2.58729,-0.115197 7.22656,-0.229464 0.9814,-0.391333 2.14121,-0.910592 2.58729,-0.561281 4.28241,-0.126065 1.78433,0.415861 2.76572,1.630431 1.24903,-0.0034 2.40886,-0.254921 2.31964,-0.503219 4.19319,0.428589 1.96275,0.823238 3.39024,2.922421 1.24903,2.048677 1.96278,4.213477 0.71372,2.075587 0.71372,4.484443 0,4.7285 -2.05198,9.45605 -1.96277,4.61899 -5.97753,9.14783 -0.44609,0.36441 -4.37162,4.16018 -3.83634,3.68719 -11.24133,10.46819 -0.80295,0.70949 -1.87356,1.92312 -1.0706,1.21365 -2.58729,2.61328 -7.3158,5.95869 -14.096283,11.4444 -5.709878,4.36128 -8.654037,7.14119 -2.944159,2.77989 -2.944159,3.67206 0,1.78434 1.51669,2.88277 1.516683,1.00924 4.639276,1.40242 4.550064,0.61883 10.259953,1.43213 5.70987,0.8133 12.22271,2.25536 0.62453,0.043 1.5167,0.38471 0.98139,0.3224 2.1412,0.69531 7.67265,1.19046 11.33055,4.59011 3.7471,3.29108 3.7471,8.73331 0,7.9403 -14.36391,18.19373 -14.27471,10.23408 -42.824125,22.85114 -0.446083,1.34582 -1.070602,2.73033 -0.535297,1.36515 -0.981386,2.62175 -0.624515,1.11687 -1.784338,1.90377 -1.159816,0.87615 -2.676508,1.20517 -1.695113,0.36773 -2.676501,-0.66842 -0.981387,-0.94691 -1.338253,-3.45679 -0.713736,-0.46967 -1.159823,-0.28369 l -5.08536,2.44147 q -0.981386,-0.3224 -1.873556,-0.57494 -0.802949,-0.18268 -1.695115,-0.43522 -0.892171,-0.34175 -1.427475,-1.02857 -0.535299,-0.59761 -0.535299,-1.48978 0,-0.80296 0.535299,-1.4544 0.624519,-0.58155 1.78434,-1.54689 z m 27.38958,-48.23063 q -1.427475,0.30968 -2.498076,3.04 -0.981386,2.62175 -1.605899,7.57495 -0.356869,4.53826 -0.713736,9.16574 -0.356868,4.53826 -0.713735,9.07654 -0.535303,2.34653 -0.892172,4.92203 l 0.178437,0.85346 0.713735,0.20203 q 3.568673,-1.75558 7.940297,-3.77455 3.033374,-0.65806 3.568678,-1.30948 0.624519,-0.76 14.453149,-9.91593 5.8883,-3.77546 8.83247,-6.55534 2.94416,-2.86914 2.94416,-4.47505 0,-0.98138 -0.80295,-1.69936 -0.80296,-0.71797 -2.40886,-1.35098 -4.19319,-1.76684 -9.27856,-2.80485 -5.085372,-1.1272 -11.152123,-1.59542 -0.802949,-0.0935 -1.873551,-0.12887 -0.981387,-0.14398 -2.230426,-0.22987 -1.962765,-0.46636 -3.03337,-0.76941 -0.981385,-0.32241 -1.427468,-0.22564 z m 17.308066,-70.66741 q -3.390234,0.73548 -5.531444,1.73528 -2.051983,0.89123 -2.944154,2.15538 -0.713736,0.86858 -1.516685,3.09475 -0.713734,2.20681 -1.605906,5.96903 -0.356867,2.0402 -0.535303,4.48777 -0.08922,2.42821 0,5.26377 -0.981381,2.53256 -2.051987,4.37072 l 0.446087,2.22286 q -1.0706,4.69309 -1.516689,7.46637 -0.446083,2.77329 -0.446083,3.66545 0,1.33826 0.535303,1.75742 0.535298,0.41919 1.516684,0.20628 0.892172,-0.19353 4.193192,-2.87243 3.390244,-2.69824 9.278555,-7.90118 6.512842,-5.69529 9.903092,-8.66119 3.47946,-3.07445 4.01475,-3.45824 1.15983,-1.67907 2.23043,-3.24958 1.15982,-1.67909 2.23042,-3.2496 1.51668,-2.20256 2.23043,-3.78487 0.71372,-1.67152 0.71372,-2.83134 0,-2.14121 -1.33825,-3.546 -1.33824,-1.40482 -4.01475,-2.07321 -0.89217,-0.16332 -3.21181,-0.37383 -2.23042,-0.22987 -5.7991,-0.16943 -2.94416,-0.16425 -4.63928,-0.2426 -1.695131,-0.0784 -2.141221,0.0185 z"
         style="font-style:normal;font-variant:normal;font-weight:normal;font-stretch:normal;font-size:222.82116699px;line-height:76.25;font-family:Mistral;-inkscape-font-specification:'Mistral, Normal';font-variant-ligatures:normal;font-variant-caps:normal;font-variant-numeric:normal;font-feature-settings:normal;text-align:start;letter-spacing:-0.32014582px;word-spacing:0px;writing-mode:lr-tb;text-anchor:start;fill:#ffffff;fill-opacity:1;stroke:none;stroke-width:0.95164663"
         id="path831"
         inkscape:connector-curvature="0" />
    </g>
  </g>
</svg>
