<svg width="782" height="780" viewBox="0 0 782 780" fill="none" xmlns="http://www.w3.org/2000/svg">
<path d="M387.705 0C189.428 0 201.808 86.2193 201.808 86.2193L202.029 175.545H391.24V202.363H126.877C126.877 202.363 0 187.935 0 388.54C0 589.153 110.741 582.038 110.741 582.038H176.831V488.946C176.831 488.946 173.268 377.902 285.805 377.902H473.469C473.469 377.902 578.904 379.61 578.904 275.724V103.954C578.904 103.954 594.917 0 387.705 0ZM283.373 60.0699C287.845 60.0658 292.273 60.9459 296.404 62.6598C300.536 64.3736 304.29 66.8876 307.452 70.0579C310.613 73.2281 313.12 76.9924 314.83 81.1353C316.539 85.2782 317.416 89.7184 317.412 94.2019C317.416 98.6853 316.539 103.125 314.83 107.268C313.12 111.411 310.613 115.176 307.452 118.346C304.29 121.516 300.536 124.03 296.404 125.744C292.273 127.458 287.845 128.338 283.373 128.334C278.902 128.338 274.474 127.458 270.343 125.744C266.211 124.03 262.457 121.516 259.295 118.346C256.134 115.176 253.627 111.411 251.917 107.268C250.208 103.125 249.33 98.6853 249.335 94.2019C249.33 89.7184 250.208 85.2782 251.917 81.1353C253.627 76.9924 256.134 73.2281 259.295 70.0579C262.457 66.8876 266.211 64.3736 270.343 62.6598C274.474 60.9459 278.902 60.0658 283.373 60.0699Z" fill="url(#paint0_linear)"/>
<path d="M393.335 779.099C591.611 779.099 579.231 692.88 579.231 692.88L579.011 603.557H389.796V576.739H654.159C654.159 576.739 781.036 591.168 781.036 390.555C781.036 189.946 670.295 197.061 670.295 197.061H604.205V290.15C604.205 290.15 607.768 401.194 495.232 401.194H307.568C307.568 401.194 202.133 399.486 202.133 503.375V675.148C202.133 675.148 186.122 779.099 393.332 779.099H393.335ZM497.666 719.035C493.195 719.039 488.767 718.159 484.635 716.445C480.503 714.732 476.749 712.217 473.588 709.047C470.426 705.877 467.919 702.113 466.21 697.97C464.501 693.827 463.623 689.387 463.627 684.903C463.623 680.42 464.5 675.979 466.209 671.836C467.918 667.693 470.425 663.928 473.587 660.757C476.748 657.587 480.503 655.073 484.634 653.358C488.766 651.644 493.194 650.764 497.666 650.768C502.137 650.764 506.565 651.644 510.697 653.358C514.828 655.072 518.582 657.586 521.744 660.756C524.906 663.926 527.413 667.691 529.122 671.834C530.831 675.977 531.709 680.417 531.705 684.9C531.709 689.384 530.831 693.824 529.122 697.967C527.413 702.11 524.906 705.874 521.744 709.044C518.582 712.214 514.828 714.728 510.697 716.442C506.565 718.156 502.137 719.036 497.666 719.032V719.035Z" fill="url(#paint1_linear)"/>
<defs>
<linearGradient id="paint0_linear" x1="390.518" y1="0" x2="390.518" y2="779.099" gradientUnits="userSpaceOnUse">
<stop stop-color="#289784"/>
<stop offset="1" stop-color="#289784" stop-opacity="0"/>
</linearGradient>
<linearGradient id="paint1_linear" x1="390.518" y1="0" x2="390.518" y2="779.099" gradientUnits="userSpaceOnUse">
<stop stop-color="#289784"/>
<stop offset="1" stop-color="#289784" stop-opacity="0"/>
</linearGradient>
</defs>
</svg>
