<svg width="1043" height="1067" viewBox="0 0 1043 1067" fill="none" xmlns="http://www.w3.org/2000/svg">
<path d="M517.743 0C252.964 0 269.496 118.08 269.496 118.08L269.79 240.414H522.464V277.143H169.432C169.432 277.143 0 257.382 0 532.118C0 806.862 147.884 797.119 147.884 797.119H236.141V669.627C236.141 669.627 231.383 517.549 381.665 517.549H632.272C632.272 517.549 773.071 519.888 773.071 377.612V142.368C773.071 142.368 794.455 0 517.743 0ZM378.418 82.2675C384.389 82.262 390.303 83.4673 395.82 85.8145C401.337 88.1617 406.35 91.6047 410.572 95.9464C414.794 100.288 418.143 105.443 420.425 111.117C422.707 116.791 423.88 122.872 423.874 129.012C423.88 135.152 422.707 141.234 420.425 146.907C418.143 152.581 414.794 157.736 410.572 162.078C406.35 166.42 401.337 169.863 395.82 172.21C390.303 174.557 384.389 175.763 378.418 175.757C372.448 175.763 366.534 174.557 361.017 172.21C355.499 169.863 350.486 166.42 346.264 162.078C342.042 157.736 338.694 152.581 336.412 146.907C334.129 141.234 332.957 135.152 332.963 129.012C332.957 122.872 334.129 116.791 336.412 111.117C338.694 105.443 342.042 100.288 346.264 95.9464C350.486 91.6047 355.499 88.1617 361.017 85.8145C366.534 83.4673 372.448 82.262 378.418 82.2675Z" fill="url(#paint0_linear)"/>
<path d="M525.261 1067C790.04 1067 773.508 948.92 773.508 948.92L773.214 826.59H520.536V789.862H873.568C873.568 789.862 1043 809.622 1043 534.878C1043 260.137 895.116 269.881 895.116 269.881H806.859V397.369C806.859 397.369 811.617 549.447 661.335 549.447H410.728C410.728 549.447 269.929 547.108 269.929 689.387V924.636C269.929 924.636 248.549 1067 525.257 1067H525.261ZM664.586 984.741C658.615 984.746 652.702 983.541 647.184 981.194C641.667 978.847 636.654 975.404 632.432 971.062C628.21 966.72 624.862 961.565 622.579 955.891C620.297 950.217 619.125 944.136 619.13 937.996C619.124 931.855 620.296 925.774 622.578 920.1C624.86 914.425 628.208 909.27 632.43 904.927C636.652 900.585 641.666 897.142 647.183 894.794C652.701 892.447 658.615 891.241 664.586 891.247C670.557 891.241 676.47 892.447 681.987 894.794C687.505 897.141 692.518 900.584 696.74 904.926C700.962 909.268 704.31 914.423 706.592 920.097C708.875 925.771 710.047 931.852 710.042 937.992C710.047 944.132 708.875 950.213 706.592 955.887C704.31 961.561 700.962 966.716 696.74 971.058C692.518 975.399 687.505 978.842 681.987 981.19C676.47 983.537 670.557 984.742 664.586 984.737V984.741Z" fill="url(#paint1_linear)"/>
<defs>
<linearGradient id="paint0_linear" x1="521.5" y1="0" x2="521.5" y2="1067" gradientUnits="userSpaceOnUse">
<stop stop-color="#289784" stop-opacity="0.75"/>
<stop offset="1" stop-color="#289784" stop-opacity="0"/>
</linearGradient>
<linearGradient id="paint1_linear" x1="521.5" y1="0" x2="521.5" y2="1067" gradientUnits="userSpaceOnUse">
<stop stop-color="#289784" stop-opacity="0.75"/>
<stop offset="1" stop-color="#289784" stop-opacity="0"/>
</linearGradient>
</defs>
</svg>
