<?xml version="1.0" encoding="UTF-8" standalone="no"?>
<!-- Created with Inkscape (http://www.inkscape.org/) -->

<svg
   xmlns:dc="http://purl.org/dc/elements/1.1/"
   xmlns:cc="http://creativecommons.org/ns#"
   xmlns:rdf="http://www.w3.org/1999/02/22-rdf-syntax-ns#"
   xmlns:svg="http://www.w3.org/2000/svg"
   xmlns="http://www.w3.org/2000/svg"
   xmlns:sodipodi="http://sodipodi.sourceforge.net/DTD/sodipodi-0.dtd"
   xmlns:inkscape="http://www.inkscape.org/namespaces/inkscape"
   width="842.94116"
   height="842.94116"
   viewBox="0 0 223.02818 223.02819"
   version="1.1"
   id="svg8"
   inkscape:version="0.92.3 (2405546, 2018-03-11)"
   sodipodi:docname="logo.svg">
  <defs
     id="defs2" />
  <sodipodi:namedview
     id="base"
     pagecolor="#ffffff"
     bordercolor="#666666"
     borderopacity="1.0"
     inkscape:pageopacity="0.0"
     inkscape:pageshadow="2"
     inkscape:zoom="0.35"
     inkscape:cx="-1.3365547"
     inkscape:cy="462.94935"
     inkscape:document-units="px"
     inkscape:current-layer="layer1"
     showgrid="false"
     showborder="false"
     inkscape:snap-global="false"
     inkscape:window-width="1920"
     inkscape:window-height="1017"
     inkscape:window-x="-8"
     inkscape:window-y="-8"
     inkscape:window-maximized="1"
     units="px"
     fit-margin-top="0"
     fit-margin-left="0"
     fit-margin-right="0"
     fit-margin-bottom="0" />
  <metadata
     id="metadata5">
    <rdf:RDF>
      <cc:Work
         rdf:about="">
        <dc:format>image/svg+xml</dc:format>
        <dc:type
           rdf:resource="http://purl.org/dc/dcmitype/StillImage" />
        <dc:title />
      </cc:Work>
    </rdf:RDF>
  </metadata>
  <g
     inkscape:label="Layer 1"
     inkscape:groupmode="layer"
     id="layer1"
     transform="translate(16.655298,-48.293828)">
    <flowRoot
       xml:space="preserve"
       id="flowRoot819"
       style="font-style:normal;font-weight:normal;font-size:192px;line-height:13.35000038;font-family:sans-serif;letter-spacing:0px;word-spacing:0px;fill:#000000;fill-opacity:1;stroke:none"><flowRegion
         id="flowRegion821"
         style="line-height:13.35000038"><rect
           id="rect823"
           width="514.28571"
           height="377.14285"
           x="-337.14285"
           y="353.94824"
           style="line-height:13.35000038" /></flowRegion><flowPara
         id="flowPara825" /></flowRoot>    <g
       id="g831">
      <path
         style="fill:#37c8ab;stroke:none;stroke-width:0.1564326;stroke-opacity:1"
         d="M 206.37288,159.80792 A 111.51409,111.51409 0 0 1 94.858791,271.32201 111.51409,111.51409 0 0 1 -16.655298,159.80792 111.51409,111.51409 0 0 1 94.858791,48.293828 111.51409,111.51409 0 0 1 206.37288,159.80792 Z"
         id="path846"
         inkscape:connector-curvature="0" />
      <path
         d="m 48.610305,232.88908 q 0.913799,-1.01051 2.538334,-2.68285 1.726066,-1.79594 4.365937,-4.29775 2.030669,-1.76047 2.944474,-3.17711 0.913799,-1.41664 0.913799,-2.73657 0,-4.77208 -0.101532,-6.06998 0,-1.31993 0,-2.03068 0,-9.74721 0.507666,-15.34014 0.507665,-5.59295 1.319933,-7.08909 l -0.203064,-3.00196 -0.609204,-0.57856 q 0,-1.11688 0,-1.92913 0.101538,-0.93583 0.101538,-1.54503 0,-5.58435 -4.975142,-6.02804 -4.873602,-0.46575 -4.873602,-5.13628 0,-1.42147 2.842935,-4.06888 2.842935,-2.74894 8.325742,-6.88285 0.710735,-5.12931 1.523003,-11.19446 0.812267,-6.06514 1.92913,-13.41478 -0.406128,-1.23184 -0.609198,-2.00005 -0.203063,-0.86974 -0.203063,-1.58049 0,-3.55366 0.812261,-6.67435 0.812267,-3.12067 2.233739,-6.06893 0.913804,-1.61969 2.335269,-3.55261 1.421471,-2.03443 3.452139,-4.50562 1.624535,-1.87542 2.436802,-3.1685 0.812267,-1.39462 0.812267,-2.10535 0,-0.81227 -0.710735,-1.16575 -0.609197,-0.37551 -1.827599,-0.11119 -3.75674,0.81498 -11.067146,4.83769 -7.310412,3.92117 -10.965614,4.71411 -1.218401,0.26432 -1.827604,0.0919 -0.507666,-0.19446 -0.507666,-0.90521 0,-2.03066 0.20307,-3.59771 0.203064,-1.56706 0.507666,-2.24234 1.726065,-1.69438 2.639865,-3.11102 1.015337,-1.43866 1.015337,-2.65707 0,-0.50766 1.015338,-1.54019 1.116863,-1.054563 3.452132,-2.170372 9.341079,-4.666304 14.214683,-7.145042 4.975142,-2.500766 5.685878,-2.858018 5.685871,-2.654949 10.864075,-4.3875 5.178206,-1.834082 9.645682,-2.803246 0.507666,-0.110132 2.03067,-0.135929 1.523,-0.12733 2.03066,-0.440529 2.03068,-0.74513 4.26442,-1.635846 0.60919,-0.132158 3.55367,-0.161726 2.94448,-0.1311 8.22421,-0.261142 1.11687,-0.445357 2.4368,-1.036301 2.94447,-0.638767 4.87361,-0.143469 2.03067,0.473272 3.14753,1.855517 1.42147,-0.0038 2.74141,-0.290114 2.63987,-0.57269 4.77208,0.487757 2.23372,0.936888 3.85826,3.325866 1.42147,2.331502 2.23374,4.795158 0.81226,2.362126 0.81226,5.103526 0,5.381274 -2.33527,10.76149 -2.23374,5.25665 -6.80273,10.4107 -0.50768,0.41474 -4.97514,4.73451 -4.36595,4.19621 -12.79321,11.91335 -0.91381,0.80743 -2.13222,2.18861 -1.2184,1.38119 -2.94446,2.97404 -8.32575,6.78131 -16.042296,13.02433 -6.498138,4.96336 -9.848745,8.12704 -3.350606,3.16367 -3.350606,4.17901 0,2.03066 1.726072,3.28074 1.726066,1.14856 5.279737,1.59603 5.178211,0.70426 11.676358,1.62983 6.49813,0.92558 13.91007,2.56672 0.71075,0.0489 1.72609,0.43782 1.11686,0.3669 2.43679,0.7913 8.73188,1.3548 12.89476,5.22378 4.2644,3.74543 4.2644,9.93896 0,9.03648 -16.34689,20.70542 -16.24535,11.64691 -48.736065,26.00578 -0.507666,1.53161 -1.218401,3.10726 -0.609198,1.55362 -1.116869,2.98369 -0.71073,1.27106 -2.030669,2.1666 -1.319932,0.99709 -3.046006,1.37153 -1.929129,0.4185 -3.045997,-0.76068 -1.11687,-1.07764 -1.523003,-3.93401 -0.812268,-0.53451 -1.319939,-0.32285 l -5.787403,2.77851 q -1.116869,-0.36691 -2.132206,-0.65431 -0.913799,-0.20789 -1.92913,-0.4953 -1.015337,-0.38894 -1.624541,-1.17058 -0.609197,-0.68011 -0.609197,-1.69544 0,-0.91381 0.609197,-1.65517 0.710735,-0.66184 2.030674,-1.76046 z M 79.781076,178.0001 q -1.624541,0.35242 -2.842942,3.45968 -1.116869,2.98369 -1.827598,8.62068 -0.406134,5.16479 -0.812267,10.43109 -0.406135,5.16479 -0.812268,10.32957 -0.609203,2.67049 -1.015338,5.60154 l 0.20307,0.97127 0.812268,0.22993 q 4.061336,-1.99793 9.036472,-4.29563 3.452138,-0.74891 4.061342,-1.49026 0.710735,-0.86492 16.448425,-11.28484 6.7012,-4.29668 10.05181,-7.46033 3.35061,-3.26523 3.35061,-5.09283 0,-1.11686 -0.91381,-1.93397 -0.91379,-0.81708 -2.74139,-1.53748 -4.77208,-2.01076 -10.55949,-3.19206 -5.78741,-1.28282 -12.691689,-1.81568 -0.913798,-0.10637 -2.132199,-0.14666 -1.116869,-0.16385 -2.53834,-0.2616 -2.233731,-0.53075 -3.452133,-0.87563 -1.116868,-0.36692 -1.624533,-0.25679 z M 99.478559,97.576894 q -3.858266,0.837007 -6.295075,1.974844 -2.335264,1.014272 -3.350601,2.452942 -0.812267,0.98848 -1.726066,3.52199 -0.812267,2.51147 -1.827604,6.79307 -0.406134,2.32184 -0.609203,5.1073 -0.101533,2.76343 0,5.99046 -1.116863,2.88217 -2.33527,4.97409 l 0.507671,2.52974 q -1.2184,5.34099 -1.726072,8.49712 -0.507666,3.15615 -0.507666,4.17148 0,1.523 0.609203,2.00003 0.609198,0.47706 1.726067,0.23475 1.015337,-0.22025 4.772071,-3.26896 3.858273,-3.07075 10.559482,-8.99197 7.411944,-6.48153 11.270224,-9.85688 3.9598,-3.49889 4.56899,-3.93566 1.31995,-1.91088 2.53835,-3.69819 1.31993,-1.91089 2.53833,-3.69821 1.72607,-2.50664 2.53835,-4.30739 0.81225,-1.90227 0.81225,-3.2222 0,-2.43681 -1.523,-4.03555 -1.52299,-1.598743 -4.569,-2.359415 -1.01533,-0.185873 -3.6552,-0.425449 -2.53834,-0.261605 -6.59968,-0.192815 -3.35061,-0.186929 -5.27975,-0.276093 -1.929131,-0.08917 -2.436801,0.02096 z"
         style="font-style:normal;font-variant:normal;font-weight:normal;font-stretch:normal;font-size:222.82116699px;line-height:76.25;font-family:Mistral;-inkscape-font-specification:'Mistral, Normal';font-variant-ligatures:normal;font-variant-caps:normal;font-variant-numeric:normal;font-feature-settings:normal;text-align:start;letter-spacing:-0.32014582px;word-spacing:0px;writing-mode:lr-tb;text-anchor:start;fill:#ffffff;fill-opacity:1;stroke:none;stroke-width:1.08302343"
         id="path831"
         inkscape:connector-curvature="0" />
    </g>
  </g>
</svg>
